<svg width="66" height="46" viewBox="0 0 66 46" fill="none" xmlns="http://www.w3.org/2000/svg">
<path fill-rule="evenodd" clip-rule="evenodd" d="M31.4321 30.721C32.4405 30.1378 33.7314 30.4824 34.3149 31.4905C34.8982 32.4991 34.553 33.79 33.5444 34.3733C28.873 37.0748 24.4492 38.3644 20.4633 38.7483V42.2591C20.4631 43.424 19.5189 44.3685 18.354 44.3685C17.1891 44.3682 16.2448 43.4239 16.2446 42.2591V38.8294C10.275 38.4744 5.67329 36.1764 3.28169 34.1604C2.39133 33.4096 2.27743 32.0785 3.02778 31.1878C3.77856 30.2972 5.10961 30.1835 6.00044 30.9339C9.16881 33.6048 19.0667 37.872 31.4321 30.721ZM24.9262 0.15361C26.9573 -0.336279 28.93 0.359117 30.5561 2.04619C31.2566 2.77306 31.7664 3.61443 32.0004 4.56181C32.2359 5.51545 32.1595 6.44795 31.8842 7.29716C31.358 8.91994 30.1072 10.262 28.812 11.2952C27.1221 12.6432 24.9412 13.7877 22.8149 14.5882C23.6421 15.2229 24.8073 15.6742 26.312 15.9388C29.0184 16.4146 32.1376 16.1352 34.1704 15.7132C35.311 15.4767 36.4277 16.2103 36.6645 17.3509C36.901 18.4914 36.1682 19.608 35.0278 19.845C33.3148 20.2006 30.9156 20.4813 28.437 20.386C28.8909 21.3336 29.1137 22.3773 29.1137 23.4749C29.1137 27.7858 25.8983 31.2804 18.144 31.2806C10.3892 31.2806 7.17329 27.7859 7.17329 23.4749C7.17334 22.5444 7.33178 21.652 7.65669 20.8245C5.39967 20.8562 3.252 20.593 1.6811 20.2669C0.54048 20.0301 -0.192183 18.9134 0.0443837 17.7728C0.281224 16.6321 1.39784 15.8984 2.53852 16.1351C4.57141 16.5571 7.69042 16.8366 10.3969 16.3606C12.2259 16.039 13.5529 15.4427 14.3803 14.5735C11.6223 14.348 8.53586 13.3551 6.24849 11.8792C4.75891 10.918 3.30684 9.5606 2.70161 7.76884C2.03324 5.7895 2.55074 3.76396 4.08638 1.99443C4.74813 1.23199 5.54043 0.648729 6.46333 0.331344C7.39225 0.0120009 8.32738 0.00472789 9.1977 0.203415C10.8611 0.58319 12.3092 1.71015 13.4536 2.90849C15.104 4.63685 16.5604 6.98466 17.5668 9.23564C18.1959 7.10096 19.2357 4.96451 20.517 3.3206C21.6068 1.92242 23.0878 0.597184 24.9262 0.15361ZM18.143 19.889C14.3608 19.8891 12.6589 21.5889 12.6586 23.6858C12.6586 25.783 14.266 27.4835 18.143 27.4837C22.0203 27.4836 23.6284 25.783 23.6284 23.6858C23.6281 21.5889 21.9254 19.889 18.143 19.889ZM27.517 4.9749C26.7294 4.15774 26.2302 4.18021 25.9155 4.25615C25.4079 4.37873 24.668 4.85876 23.8452 5.91435C22.8451 7.19741 22.0459 8.91334 21.5795 10.5442C23.2414 9.89432 24.9262 8.9983 26.1811 7.99736C27.216 7.17183 27.7181 6.46567 27.8706 5.99541C27.9344 5.79845 27.9286 5.67182 27.9047 5.57451C27.8792 5.47112 27.7986 5.26708 27.517 4.9749ZM8.25825 4.31767C8.05609 4.27154 7.93025 4.28901 7.8354 4.32158C7.73457 4.35633 7.53851 4.45403 7.2729 4.76006C6.52913 5.61718 6.59604 6.11249 6.69966 6.41923C6.86685 6.9139 7.41082 7.60846 8.53559 8.33427C9.90255 9.21634 11.6831 9.85949 13.3491 10.179C12.554 8.58148 11.5114 6.9825 10.4028 5.82158C9.48854 4.86418 8.7402 4.42772 8.25825 4.31767Z" fill="black"/>
<path fill-rule="evenodd" clip-rule="evenodd" d="M36.8427 32.9693C37.5928 32.078 38.9243 31.9635 39.8158 32.7132C42.506 34.9767 51.0263 38.669 61.7053 32.4807C62.7131 31.897 64.0039 32.2399 64.5883 33.2473C65.1724 34.2553 64.8287 35.5471 63.8208 36.1314C59.8048 38.4586 55.9918 39.6007 52.5404 39.9706L52.543 42.7918C52.5437 43.9566 51.6003 44.9018 50.4354 44.9028C49.2707 44.9036 48.3256 43.96 48.3243 42.7952L48.322 40.0523C43.1747 39.6946 39.197 37.7067 37.0998 35.9422C36.2086 35.1922 36.0932 33.8607 36.8427 32.9693ZM40.66 26.4068C40.6571 22.6444 43.6266 19.5923 50.2295 19.5864C56.8323 19.5806 59.806 22.6275 59.8097 26.3898C59.813 30.1524 57.0096 33.206 50.2413 33.2121C43.4731 33.2179 40.6633 30.1694 40.66 26.4068ZM50.2333 23.2687C46.9316 23.2717 45.4458 24.757 45.4475 26.5875C45.4491 28.4179 46.8547 29.9006 50.2389 29.8976C53.6228 29.8945 55.0244 28.4094 55.0228 26.579C55.0212 24.7486 53.5345 23.266 50.2333 23.2687ZM50.6004 9.8259C51.7652 9.82504 52.7111 10.7686 52.7124 11.9334L52.7134 14.4749C55.3995 14.6627 58.4002 15.1308 61.6114 16.0596C62.7307 16.3834 63.3764 17.5535 63.0527 18.6727C62.7289 19.7918 61.5586 20.4357 60.4395 20.112C54.9269 18.5175 50.1167 18.4256 46.6583 18.7266C44.9302 18.8771 43.5401 19.1252 42.57 19.3342C42.0853 19.4386 41.7019 19.534 41.425 19.6044C41.2968 19.637 41.1595 19.6732 41.065 19.6964C41.017 19.7081 40.9505 19.7238 40.8837 19.7375C40.8504 19.7443 40.797 19.7547 40.7347 19.7639C40.6943 19.7698 40.5478 19.7916 40.3644 19.788C39.1998 19.7647 38.2748 18.8019 38.2975 17.6374C38.3179 16.6061 39.0749 15.7629 40.0565 15.5989L40.0585 15.5988C40.131 15.581 40.2241 15.556 40.3858 15.5149C40.6889 15.4378 41.1265 15.3289 41.6812 15.2094C42.7908 14.9704 44.3581 14.6912 46.2928 14.5228C46.9813 14.4628 47.7171 14.4181 48.4951 14.3931L48.4928 11.9369C48.492 10.7721 49.4356 9.82713 50.6004 9.8259ZM40.1196 15.5899C40.1124 15.591 40.1057 15.5931 40.0993 15.5942C40.1196 15.5912 40.1399 15.5877 40.1604 15.5853C40.1397 15.5879 40.1255 15.589 40.1196 15.5899Z" fill="black"/>
</svg>
