<svg width="56" height="56" viewBox="0 0 56 56" fill="none" xmlns="http://www.w3.org/2000/svg">
<circle cx="28" cy="28" r="28" fill="#DBDBDB"/>
<path d="M33.6756 34.4646C35.7106 35.4252 37.4458 36.9217 38.6951 38.7934C39.9444 40.6652 40.6607 42.8417 40.7671 45.0895C40.7813 45.2954 40.7542 45.5021 40.6875 45.6974C40.6207 45.8927 40.5156 46.0726 40.3783 46.2268C40.241 46.3809 40.0743 46.506 39.888 46.5949C39.7017 46.6837 39.4996 46.7344 39.2934 46.744C39.0873 46.7537 38.8812 46.722 38.6875 46.651C38.4937 46.5799 38.3161 46.4708 38.165 46.3302C38.014 46.1895 37.8925 46.0201 37.8078 45.8319C37.7232 45.6437 37.6769 45.4405 37.6718 45.2341C37.5592 42.8466 36.5314 40.5941 34.8019 38.9443C33.0724 37.2945 30.774 36.374 28.3838 36.374C25.9936 36.374 23.6952 37.2945 21.9657 38.9443C20.2362 40.5941 19.2084 42.8466 19.0958 45.2341C19.068 45.6383 18.883 46.0154 18.5805 46.2849C18.278 46.5543 17.882 46.6946 17.4774 46.6757C17.0727 46.6568 16.6916 46.4802 16.4155 46.1837C16.1395 45.8872 15.9905 45.4945 16.0005 45.0895C16.1067 42.8419 16.8227 40.6655 18.0716 38.7938C19.3205 36.9221 21.0553 35.4255 23.0899 34.4646C21.7861 33.3771 20.849 31.9143 20.4059 30.2753C19.9629 28.6363 20.0355 26.9006 20.6138 25.3043C21.1922 23.7081 22.2482 22.3287 23.6383 21.3538C25.0283 20.379 26.6849 19.856 28.3828 19.856C30.0806 19.856 31.7372 20.379 33.1273 21.3538C34.5173 22.3287 35.5734 23.7081 36.1517 25.3043C36.7301 26.9006 36.8027 28.6363 36.3596 30.2753C35.9166 31.9143 34.9794 33.3771 33.6756 34.4646ZM33.5496 28.1149C33.5496 26.7448 33.0053 25.4309 32.0365 24.4621C31.0678 23.4933 29.7538 22.9491 28.3838 22.9491C27.0138 22.9491 25.6998 23.4933 24.7311 24.4621C23.7623 25.4309 23.2181 26.7448 23.2181 28.1149C23.2181 29.4849 23.7623 30.7988 24.7311 31.7676C25.6998 32.7364 27.0138 33.2806 28.3838 33.2806C29.7538 33.2806 31.0678 32.7364 32.0365 31.7676C33.0053 30.7988 33.5496 29.4849 33.5496 28.1149Z" fill="#AEAEAE"/>
<path fill-rule="evenodd" clip-rule="evenodd" d="M32.7984 10.0923C34.012 9.79969 35.2026 10.2071 36.2086 11.2506C36.6384 11.6965 36.9444 12.2046 37.0836 12.7681C37.2234 13.3346 37.1781 13.8904 37.0123 14.4019C36.6933 15.3855 35.9265 16.2195 35.0992 16.8795C33.9098 17.8282 32.3317 18.6226 30.8414 19.1363C31.4356 19.7618 32.3716 20.1688 33.5914 20.3834C35.3989 20.7011 37.4677 20.5154 38.814 20.2359C39.4113 20.112 39.9966 20.4951 40.1207 21.0923C40.2444 21.6896 39.8605 22.2749 39.2633 22.399C37.74 22.7152 35.3749 22.941 33.2086 22.5601C31.4283 22.247 29.5195 21.4623 28.5387 19.7252L28.5064 19.732C27.577 21.6578 25.5654 22.5057 23.6959 22.8345C21.5295 23.2155 19.1645 22.9896 17.6412 22.6734C17.0438 22.5494 16.6598 21.9642 16.7838 21.3668C16.908 20.7696 17.4931 20.3863 18.0904 20.5103C19.4368 20.7898 21.5055 20.9756 23.3131 20.6578C24.7903 20.398 25.85 19.8564 26.3912 18.9849C24.5257 18.9351 22.3077 18.2765 20.7086 17.2447C19.7613 16.6334 18.8738 15.7911 18.5074 14.7066C18.1078 13.5236 18.4078 12.3015 19.358 11.2066C19.7639 10.7389 20.2418 10.3895 20.7906 10.2007C21.3425 10.011 21.9 10.0059 22.4244 10.1256C23.4328 10.3558 24.332 11.0465 25.0631 11.8121C26.2967 13.1041 27.3664 14.9476 27.9986 16.5953C28.3507 14.9966 29.1043 13.3042 30.0748 12.0591C30.7679 11.1701 31.6857 10.3608 32.7984 10.0923ZM34.6187 12.7838C34.0517 12.1955 33.631 12.1648 33.316 12.2408C32.9001 12.3413 32.3702 12.7088 31.817 13.4185C31.0414 14.4137 30.4444 15.7918 30.1646 17.0328C31.422 16.5945 32.7568 15.9222 33.7213 15.1529C34.4123 14.6016 34.7875 14.1005 34.9107 13.7203C34.9659 13.5499 34.9673 13.4157 34.9381 13.2974C34.9081 13.176 34.829 13.0019 34.6187 12.7838ZM21.9332 12.2798C21.7586 12.24 21.6246 12.251 21.5094 12.2906C21.3911 12.3313 21.2246 12.4251 21.026 12.6539C20.4904 13.271 20.4975 13.6926 20.6012 13.9996C20.7382 14.4049 21.1515 14.9002 21.9078 15.3882C22.9679 16.0721 24.393 16.5451 25.6539 16.7134C25.1055 15.4999 24.3175 14.2298 23.4654 13.3375C22.855 12.6983 22.3229 12.3689 21.9332 12.2798Z" fill="#AEAEAE"/>
</svg>
