<svg width="101" height="50" viewBox="0 0 101 50" fill="none" xmlns="http://www.w3.org/2000/svg">
<path d="M91.6527 9.96419C91.6272 9.55289 91.4389 9.17113 91.1258 8.90319C90.8129 8.63522 90.4007 8.50302 89.9836 8.53539C89.5665 8.56775 89.1796 8.76194 88.9118 9.07497C88.6437 9.388 88.5166 9.79423 88.5548 10.2046C88.5548 10.2046 88.5548 10.2046 88.5548 10.2046C88.638 11.0818 87.9373 12.7901 87.1632 14.1114C83.3666 20.4804 76.0372 26.2212 68.5858 24.4287C63.1919 23.264 58.478 20.6369 53.1993 18.3678C47.7666 16.1017 41.7449 16.7715 36.3111 17.9627C23.1628 19.4748 21.5372 37.1377 8.68552 37.3422C6.98316 37.3888 5.28767 37.1817 3.58593 36.8284C5.2765 37.2321 6.96859 37.4924 8.68756 37.4976C21.8167 37.5521 24.1462 19.9554 36.5512 19.1438C41.9654 18.1282 47.624 17.71 52.5554 19.9532C57.4289 22.2187 62.4829 25.2089 68.0353 26.5763C76.994 28.8875 85.1967 22.6144 89.6967 15.6265C90.6148 14.0052 91.6334 12.5284 91.6527 9.96419Z" fill="#8FDD7C"/>
<path d="M66.3597 25.8743C67.5473 24.7493 70.1082 23.5871 72.2358 25.8329C74.3635 28.0787 73.1319 30.644 71.9444 31.769C70.7569 32.8941 63.435 35.8351 62.6312 34.8385C61.8274 33.8419 65.1722 26.9994 66.3597 25.8743Z" fill="#8FDD7C"/>
<path d="M52.9402 14.6054C54.3344 15.461 56.1202 17.6336 54.5021 20.2703C52.8839 22.907 50.0872 22.3818 48.693 21.5262C47.2988 20.6705 42.5619 14.3601 43.3163 13.3256C44.0707 12.2912 51.546 13.7498 52.9402 14.6054Z" fill="#8FDD7C"/>
<path d="M26.0115 23.2924C26.258 22.3691 27.1765 21.0069 28.9226 21.473C30.6687 21.9392 30.8412 23.5926 30.5947 24.5159C30.3482 25.4392 27.6053 29.1439 26.9002 28.894C26.1952 28.6442 25.765 24.2157 26.0115 23.2924Z" fill="#8FDD7C"/>
<path d="M88.2313 13.5347C88.1856 11.8995 89.0285 9.21651 92.1209 9.13001C95.2133 9.04352 96.3025 11.6725 96.3482 13.3076C96.394 14.9428 93.6996 22.359 92.4209 22.2928C91.1423 22.2267 88.277 15.1699 88.2313 13.5347Z" fill="#8FDD7C"/>
<path d="M86.499 7.41632C88.0313 6.8438 90.8427 6.77302 91.9254 9.67095C93.0082 12.5689 90.8733 14.4503 89.3409 15.0229C87.8085 15.5954 79.9195 15.4463 79.5682 14.2151C79.217 12.9839 84.9666 7.98884 86.499 7.41632Z" fill="#8FDD7C"/>
</svg>
