<svg width="97" height="32" viewBox="0 0 97 32" fill="none" xmlns="http://www.w3.org/2000/svg">
<path d="M4.67272 22.1387C4.61584 22.5469 4.72426 22.9585 4.97775 23.2835C5.23102 23.6084 5.6086 23.82 6.0238 23.8714C6.43901 23.9228 6.85679 23.8096 7.18163 23.5562C7.50667 23.3028 7.71215 22.93 7.75648 22.5203C7.75648 22.5203 7.75648 22.5203 7.75648 22.5203C7.84964 21.6441 8.87668 20.1096 9.89839 18.969C14.8877 13.4839 23.2138 9.31832 30.1587 12.5593C35.2126 14.7751 39.3086 18.2886 44.0296 21.5637C48.9019 24.8667 54.9363 25.4098 60.4986 25.325C73.6845 26.4624 78.7961 9.47742 91.431 11.8371C93.1085 12.1306 94.7287 12.6713 96.326 13.3565C94.7497 12.6241 93.1434 12.032 91.4599 11.6845C78.6048 9.01555 72.8165 25.7956 60.4986 24.1197C54.9905 24.0365 49.362 23.319 44.9763 20.1384C40.6518 16.9474 36.2948 13.0104 31.126 10.5644C22.8073 6.51488 13.5194 11.0282 7.7175 16.9796C6.49487 18.3855 5.2025 19.6298 4.67272 22.1387Z" fill="#8FDD7C"/>
<path d="M32.6281 11.586C31.2403 12.452 28.4991 13.0807 26.8615 10.4561C25.2239 7.83146 26.9418 5.56288 28.3296 4.69695C29.7175 3.83101 37.4785 2.40756 38.0676 3.5443C38.6568 4.68104 34.0159 10.7201 32.6281 11.586Z" fill="#8FDD7C"/>
<path d="M43.5338 25.3023C42.338 24.1861 41.0209 21.7013 43.1318 19.4399C45.2427 17.1784 47.8788 18.2502 49.0746 19.3664C50.2705 20.4826 53.6553 27.6102 52.71 28.4736C51.7646 29.3371 44.7296 26.4186 43.5338 25.3023Z" fill="#8FDD7C"/>
<path d="M71.6533 22.1538C71.2279 23.0095 70.0564 24.1614 68.4381 23.3568C66.8199 22.5521 66.9803 20.8975 67.4058 20.0418C67.8312 19.1861 71.2572 16.1021 71.8983 16.4874C72.5394 16.8726 72.0788 21.2981 71.6533 22.1538Z" fill="#8FDD7C"/>
<path d="M8.73682 19.3214C8.4559 20.9329 7.09535 23.3942 4.04772 22.8629C1.00009 22.3316 0.45643 19.5384 0.737352 17.9269C1.01827 16.3154 5.13602 9.58458 6.37585 9.90414C7.61568 10.2237 9.01774 17.7098 8.73682 19.3214Z" fill="#8FDD7C"/>
<path d="M9.21564 25.6623C7.59994 25.9181 4.83079 25.4274 4.34706 22.3718C3.86333 19.3163 6.33024 17.8978 7.94594 17.6421C9.56164 17.3863 17.2629 19.1039 17.3618 20.3804C17.4607 21.6569 10.8313 25.4065 9.21564 25.6623Z" fill="#8FDD7C"/>
</svg>
