<svg width="271" height="85" viewBox="0 0 271 85" fill="none" xmlns="http://www.w3.org/2000/svg">
<path d="M2.56449 35.3969C1.1886 25.3683 8.70436 16.3359 18.8191 15.936C59.2257 14.3384 153.184 10.9213 184.869 12.3352C210.147 13.4631 236.778 16.827 253.384 19.2236C262.637 20.5591 268.883 29.1958 267.487 38.4405L265.624 50.7783C264.37 59.08 257.315 65.2607 248.921 65.4068C217.297 65.957 143.091 67.3572 118.377 68.7751C94.5957 70.1394 43.3762 64.9605 19.1953 62.2788C11.44 61.4187 5.30572 55.3774 4.24513 47.6469L2.56449 35.3969Z" fill="#FFF9ED"/>
<path d="M270.11 38.8662C269.844 42.7897 269.396 46.6805 268.655 50.6458C268.606 50.9093 268.551 51.0855 268.496 51.212C268.352 51.5737 268.213 51.5893 268.129 51.8869C267.922 52.6578 267.818 54.0223 267.751 54.208C267.386 55.3329 267.112 54.7437 267.047 54.8879C266.253 56.4335 266.913 56.1691 266.189 57.7C265.214 59.6772 263.385 61.9011 261.323 63.5506C260.587 64.1147 260.741 63.6504 259.121 64.7643C258.04 65.6197 254.108 67.6876 252.03 67.5088C251.993 67.3604 252.206 67.1507 252.275 66.9761C250.999 67.5367 250.046 67.7654 248.963 67.8452C248.036 67.9185 246.87 67.8928 245.109 67.845C244.561 67.8303 244.045 68.1012 243.042 68.0224C242.028 67.9438 242.042 67.5399 240.051 67.5807C239.34 67.5962 238.915 67.8884 237.863 67.9198C234.77 68.0112 229.032 67.7646 226.501 67.8007C221.55 67.8705 218.923 68.4074 214.525 68.326C214.185 68.3205 214.926 67.9939 214.302 68.0002C213.683 68.0064 213.048 68.4323 212.895 68.4451C211.248 68.5844 207.739 68.1022 206.822 68.1882C204.588 68.3982 206.784 68.5348 203.699 68.6771C200.752 68.8129 196.665 68.3619 193.742 68.3206C190.35 68.2725 189.276 69.0781 186.706 68.3201C177.742 68.5705 168.767 68.8159 159.783 69.0985C159.804 68.9353 159.829 68.7719 159.855 68.6085C159.15 68.74 158.447 68.8717 157.749 69.0021C157.852 68.8782 157.949 68.7544 158.052 68.6317C154.714 69.1901 151.764 69.514 147.872 69.5021C147.795 69.502 147.987 69.1719 147.923 69.1654C147.036 69.1308 146.067 69.4099 145.306 69.3747C143.421 69.2916 140.264 68.6869 141.671 69.5064C137.316 69.4679 132.231 69.9389 128.093 69.9413C126.348 69.9408 125.734 69.4554 124.888 69.4631C124.041 69.4716 124.492 69.8922 124.195 69.9226C122.361 70.1012 119.362 70.2397 119.036 69.7666C118.843 69.8875 118.647 70.0095 118.455 70.1317C118.296 70.2284 118.136 70.3249 117.977 70.4207C118.175 69.889 112.501 70.3122 110.984 70.2812C110.717 70.2807 110.679 70.0414 110.477 70.0449C108.192 70.0827 107.646 70.4514 105.664 70.552C104.966 70.5854 106.042 70.1816 104.289 70.3339C104.135 70.3459 104.214 70.7319 102.094 70.679C98.7247 70.602 92.3068 70.4881 88.3209 70.0775C87.9949 70.0451 89.0127 69.6867 87.5119 69.7013C86.9683 69.7053 87.2071 70.0134 85.8942 69.9408C80.8074 69.6607 75.4125 68.9521 70.2119 68.8359C70.426 68.5198 72.2981 68.2898 69.5102 68.2854C69.0644 68.2855 69.3725 68.6061 69.1728 68.6017C67.5549 68.5623 66.1781 68.2409 64.4254 68.2121C63.9078 68.2042 63.7609 68.4253 63.1147 68.4272C62.1608 68.4303 61.771 68.0653 60.6566 68.1122C58.9157 68.1862 58.6283 68.4772 56.5438 67.6761C44.4535 66.6505 32.4442 65.6145 20.4301 64.0205C19.9431 63.9915 19.4708 63.9642 19.0113 63.9381C15.7787 63.7267 12.646 62.734 9.78029 60.6967C8.81615 59.9729 8.88724 59.5431 7.4722 58.3015C7.12619 58.077 4.87907 55.8907 5.42856 55.0387C4.93753 54.3742 4.69028 53.9104 4.34349 53.2892C4.46049 53.8302 4.61145 54.3866 4.76877 54.9061C3.50595 52.4693 2.59842 50.3354 2.10315 47.9407C2.05287 47.7 2.00343 47.458 1.95534 47.2138C1.60831 45.4487 2.14273 46.6624 1.95663 45.5756C1.77167 44.4883 1.62229 44.0029 1.8675 42.5785C1.22151 41.5752 1.4737 40.8147 1.21583 38.8361C1.1879 38.6237 0.825961 37.4224 0.723803 36.3909C0.694571 36.0954 0.72159 35.8762 0.751478 35.6457C0.793404 35.2579 0.841808 34.8611 0.766054 34.0809C0.70239 33.8874 0.355007 31.0997 0.513192 30.1983C0.630123 28.7866 1.68452 26.7958 1.79599 26.5691C3.26215 23.0581 3.99474 21.5792 6.29097 20.0444C6.36747 19.3812 7.92778 17.6208 9.56875 16.7028C11.6094 15.328 16.2802 14.9186 16.7915 14.1188C17.707 14.118 18.2711 14.1463 18.7483 14.1463C19.5813 14.1553 20.0683 14.0316 22.0351 13.9496C24.6057 13.8408 31.7241 13.8891 33.7678 13.7663C35.9096 13.6402 34.8493 13.2127 35.7059 13.118C37.1013 12.962 36.3506 13.3351 37.2917 13.295C39.9599 13.1807 42.3009 13.0284 44.8581 12.7846C45.0057 13.0215 45.1642 13.2591 45.3174 13.4957C45.4485 13.4102 45.5792 13.3247 45.7107 13.2392C46.2769 13.2211 46.8804 13.1942 47.3862 13.1833C43.0661 12.2764 51.5636 13.1104 54.0827 13.0496C56.2402 12.9953 59.7649 12.3683 62.1342 12.1784C62.7091 12.1319 62.3222 12.4069 62.4402 12.3968C63.8247 12.2749 64.0079 12.0898 65.8625 12.0516C66.8424 12.032 67.8591 12.3257 68.8212 12.2998C75.8199 12.1107 82.5704 11.5664 89.534 11.3216C90.7176 11.2799 91.7522 11.6492 92.7492 11.6284C94.1725 11.5988 95.0609 11.2454 96.3977 11.2019C97.7297 11.1586 99.6615 11.4954 100.564 11.4103C101.466 11.3264 99.909 10.9905 101.566 11.0484C102.327 11.0751 100.993 11.3945 101.932 11.3771C104.859 11.3228 108.99 10.8629 112.116 11.1227C111.976 11.0419 111.785 10.9708 111.614 10.8944C114.949 10.8427 117.881 10.9743 121.315 10.9248C122.505 10.9083 124.676 10.612 125.856 10.5879C127.036 10.5638 127.576 10.8215 128.514 10.8095C128.899 10.8052 128.743 10.5673 129.002 10.5669C132.299 10.5635 134.034 10.9592 137.481 10.8497C149.981 10.4624 162.802 10.1403 175.596 10.1602C176.115 10.162 176.469 9.8537 177.207 9.82107C178.333 9.77096 178.382 10.0508 178.545 10.064C179.579 10.1489 179.176 9.88128 180.523 9.91696C181.697 9.94878 183.441 10.046 184.966 10.1603C187.184 10.3208 189.494 10.5146 191.195 10.6022C198.001 10.9558 203.731 11.1538 210.395 11.6307C210.875 11.6646 210.515 12.0048 211.346 12.0861C217.199 12.6782 218.474 12.4412 225.74 13.3401C232.597 14.1827 245.169 15.9803 253.662 17.2917C254.226 17.3771 254.765 17.4839 255.284 17.6088C255.284 17.6097 255.284 17.6105 255.284 17.6114C258.395 17.561 262.158 19.7604 264.028 22.4459C260.968 19.9227 257.269 18.4349 253.549 18.0794C240.62 16.8596 227.893 14.8063 213.919 13.5078C204.486 12.6374 194.693 12.2144 184.881 12.0738C175.314 11.9718 165.759 12.266 156.332 12.2373C154.583 12.2343 153.863 11.8494 152.349 11.9459C152.092 11.9623 152.76 12.2573 151.971 12.2958C141.282 12.8145 129.819 12.35 119.306 12.7879C116.454 12.9068 116.037 13.2536 113.54 13.4025C113.975 13.2327 114.258 13.0594 114.636 12.8898C103.229 12.6757 91.8256 13.2271 80.2934 13.5204C79.7708 13.5332 79.6935 13.2065 79.1457 13.2116C78.0504 13.2208 77.0169 13.6161 76.0667 13.6591C74.8285 13.715 74.6036 13.4604 73.45 13.5152C72.8882 13.5423 73.0632 13.7882 71.8427 13.7856C71.7408 13.7853 71.6646 13.5237 70.857 13.5844C68.6681 13.7506 64.1068 14.1259 62.2827 14.2548C59.9179 14.4202 58.0471 14.0875 57.1603 14.0927C54.7368 14.1077 54.8038 14.5128 52.7871 14.5844C41.2964 14.9944 30.2605 15.1176 18.7999 15.4516C15.7291 15.5358 12.6392 16.456 9.98782 18.1663C9.11343 18.6315 6.72705 21.2577 5.76257 22.6797C5.3504 23.0943 3.72764 25.6785 3.59631 26.1307C2.82031 27.8129 2.20702 29.345 1.9953 30.376C1.59159 32.2287 2.04324 34.3188 2.30357 35.4327C2.32418 35.5271 2.34206 35.6156 2.35668 35.6976C2.68631 37.5427 3.08267 40.8456 3.17867 41.6263C3.41006 43.5109 2.80039 42.9614 3.10798 44.2946C3.19925 44.6884 3.54398 44.2155 3.73677 45.6207C3.86869 46.5907 3.73086 47.113 3.70932 47.7204C3.70533 47.8548 3.70813 47.9934 3.72206 48.1409C3.78647 48.9948 4.63709 50.3541 4.79923 50.8267C5.6504 53.3406 5.95816 54.6052 7.83651 56.9197C8.84019 58.6986 15.5016 62.7916 19.1578 62.6172C20.0295 62.6843 20.6736 62.7271 20.8689 62.7253C23.8983 62.6925 21.0552 62.4027 19.201 62.2281C18.4951 62.1623 17.9223 62.0621 17.821 62.038C15.8061 61.4739 16.1842 61.3941 14.1205 60.9458C13.4978 60.064 11.6482 59.2615 10.0316 57.9905C8.40365 56.7601 7.10223 55.098 7.25623 54.0639C5.6179 53.1045 5.3808 51.4936 5.08658 49.7685C4.7757 47.4087 4.66486 49.1599 4.37041 47.6297C4.36314 47.5836 4.35587 47.5345 4.3486 47.4823C4.24975 46.7688 4.36564 44.6465 4.16292 43.5826C3.96009 42.5189 3.59179 42.1096 3.37787 40.6764C3.08348 38.71 2.9326 37.0247 2.91102 35.3494C2.90548 34.8512 2.9337 34.3636 2.99453 33.8715C2.8117 33.4977 2.64136 33.1321 2.48385 32.7404C2.68407 31.2505 3.08152 29.8029 3.65058 28.4619C3.44914 28.6442 3.2493 28.8341 3.05408 29.0316C3.13671 28.6034 3.23691 28.1792 3.35388 27.758C4.01034 26.4489 4.77884 25.2951 5.73855 24.2048C7.37485 20.5266 7.36582 21.8948 8.97569 20.505C10.7014 19.2246 11.5859 18.2094 13.1713 17.5308C15.3181 16.7076 16.3754 16.4145 18.7021 16.2865C18.7447 16.2851 18.7884 16.2842 18.8329 16.2839C20.1593 16.2758 22.3424 16.6019 20.4484 15.9663C24.7424 15.7382 30.6896 15.3051 34.489 15.4596C35.6379 15.5031 34.1189 15.7912 34.316 15.8125C35.282 15.9119 36.1319 15.5057 37.0919 15.5234C38.7106 15.5521 42.0035 15.7217 43.2709 15.744C45.1473 15.7742 48.0849 15.1832 48.3738 15.1374C50.044 14.8803 50.5187 15.266 51.0627 15.2187C54.1314 14.9478 54.791 14.756 55.7986 15.5696C56.6046 15.174 59.8868 14.4422 60.7224 15.0313C60.7203 14.4734 63.5172 14.4714 65.1976 14.2752C65.5186 14.4258 65.8454 14.5753 66.1674 14.7272C69.7145 13.6085 76.7852 14.1016 81.4847 14.0736C81.6018 14.0723 81.7974 13.648 82.5031 13.7202C82.5479 13.7265 82.4813 13.9165 82.9537 13.9261C84.5123 13.955 90.4645 14.2436 91.1482 14.2281C93.6681 14.1692 94.0946 13.8449 95.6249 13.7712C97.6388 13.6739 97.9376 13.947 99.855 13.8527C100.753 13.8091 101.56 13.4159 102.973 13.4294C103.81 13.4371 103.901 13.7257 104.563 13.7312C106.924 13.7517 108.655 13.5224 110.75 13.8477C111.267 12.9085 112.293 13.5647 113.331 13.6085C117.537 13.7874 122.753 13.275 126.384 13.2823C137.622 13.3104 147.617 13.7118 158.627 13.7756C160.419 13.7874 160.786 13.321 162.708 13.346C163.556 13.3581 164.426 13.6934 165.768 13.6999C166.894 13.7059 168.504 13.5399 169.845 13.5496C170.203 13.5519 170.226 13.8675 170.785 13.874C174.867 13.9245 178.909 13.76 183.022 13.7539C183.827 13.7534 184.432 13.8791 184.8 13.8941C185.158 13.9088 185.314 13.83 185.206 13.4769C185.782 13.6818 186.342 13.8641 186.883 14.067C189.009 13.7139 190.703 14.2836 193.553 14.3439C193.86 14.3484 196.042 13.9856 197.236 14.4341C197.34 14.1816 197.166 13.9488 197.218 13.7171C198.43 13.7016 200.26 14.137 201.07 14.2303C201.879 14.3227 202.45 14.0302 202.694 14.0463C203.625 14.1116 203.372 14.5361 203.443 14.549C207.74 15.3269 207.297 15.0593 209.975 14.6307C210.644 14.5192 215.047 15.425 215.994 14.9959C216.014 15.2128 215.747 15.3755 215.656 15.5716C216.988 15.7586 218.325 15.9513 219.655 16.1455C219.394 15.9116 219.075 15.6717 218.837 15.4394C221.553 15.8994 223.871 15.6651 226.111 15.9328C227.38 16.086 227.183 16.5207 227.942 16.5079C228.09 16.5053 227.878 16.1721 228.315 16.1977C231.888 16.4116 233.413 16.9219 236.954 17.4258C238.623 17.6653 240.139 17.2965 242.486 17.9756C242.688 18.0364 244.979 18.8402 246.513 18.3346C246.94 18.6187 247.339 18.7922 247.654 19.0258C250.611 18.4129 249.843 19.2313 253.27 20.0132C253.397 20.0428 253.529 20.0737 253.666 20.1062C255.693 20.2014 261.671 23.2321 262.972 25.102C263.859 26.0326 264.15 25.7979 264.31 25.9729C265.201 27.084 264.855 27.3016 265.515 28.404C266.159 29.5084 267.151 30.9388 267.388 32.2995C267.55 33.3319 266.944 32.6077 267.31 34.0789C267.372 34.3903 267.736 33.4411 267.681 35.075C267.715 35.3471 267.154 37.8853 266.928 38.356C266.979 36.9925 266.474 33.2776 265.921 32.0087C264.398 27.1698 259.621 22.0767 253.063 21.4487C232.109 19.1014 205.496 16.2921 184.735 15.3508C179.094 15.0903 173.72 15.0086 169.089 14.9404C166.571 14.907 164.902 14.4721 163.263 14.4359C161.598 14.401 163.012 14.7968 161.488 14.7678C160.004 14.7381 158.932 14.4619 157.512 14.4462C148.047 14.3408 138.548 14.3192 129.142 14.4341C126.732 14.464 124.776 14.8308 122.564 14.8806C121.707 14.8998 121.67 14.4826 121.06 14.5002C114.457 14.6856 108.375 15.2448 101.813 15.3774C99.0879 15.432 96.134 15.1641 93.437 15.2103C91.211 15.2474 88.9103 15.5574 86.9173 15.6232C85.829 15.6601 85.2458 15.3596 84.8518 15.3467C83.4811 15.3059 83.9715 15.6798 83.273 15.7015C81.3494 15.7602 80.3762 15.3211 78.5664 15.4155C77.8575 15.4528 77.9579 15.7489 76.9317 15.8285C75.6315 15.9291 76.1041 15.6377 75.1759 15.6578C75.12 15.6584 75.3089 15.8663 74.8174 15.8909C71.6151 16.051 67.6596 16.3513 64.5893 16.4409C58.2313 16.6273 51.9465 16.4366 46.0449 16.5703C44.5303 16.6057 44.9448 16.8698 44.4673 16.9007C42.1804 17.0479 41.3853 16.7433 38.9672 16.9529C38.555 16.9879 37.0286 17.4311 35.4594 17.3922C34.6178 17.3712 33.6697 17.1659 32.9716 17.1361C32.2704 17.1064 32.19 17.4644 31.3402 17.4969C29.7722 17.558 30.2021 17.2954 28.0222 17.4231C27.1918 17.4721 24.1706 17.9251 21.8974 17.9887C20.9231 18.0162 19.9148 18.0279 18.902 18.032C16.2051 18.0117 13.1532 18.7845 10.7489 20.4885C9.63539 21.2683 8.56418 22.6751 7.38343 24.3297C5.78187 26.2836 4.2778 30.7934 4.50803 33.4044C4.55746 34.7168 4.23616 34.8582 4.23105 35.0222C4.23238 35.0742 4.23482 35.1224 4.23819 35.1673C4.31417 36.111 4.64315 35.68 4.7267 36.4067C4.84727 37.4565 4.66954 38.476 4.77936 39.4293C4.84937 40.0375 5.17403 40.091 5.19449 40.2221C5.5881 42.7003 5.92694 45.0354 6.25721 47.3708C6.53876 49.3436 7.18834 51.2631 8.27902 53.0578C10.6434 56.9881 14.8979 59.6812 19.4364 60.1056C40.3169 62.2136 61.3479 64.0307 82.1561 65.5128C84.3266 65.663 84.4006 66.0641 86.3073 66.1123C88.241 66.1619 90.115 65.403 91.6521 66.424C91.712 66.2359 91.7136 66.0998 91.7727 65.9288C95.7154 66.3887 99.6813 66.2603 103.539 66.3073C106.366 66.3404 108.939 66.3916 111.544 66.3861C113.866 66.3743 113.696 66.7091 115.665 66.2126C116.518 66.2058 117.408 66.1863 118.227 66.1582C127.499 65.8483 136.893 65.5341 146.093 65.6579C148.44 64.8755 150.698 65.2564 153.977 65.269C154.378 65.2711 153.939 65.024 155.13 65.0126C156.63 64.998 157.434 65.3718 159.945 65.2824C160.622 65.2576 165.553 64.6889 167.4 64.8679C169.226 65.0465 171.902 65.1122 173.802 65.2815C173.527 65.1181 173.181 64.9639 172.876 64.8038C173.823 64.7513 174.778 64.6999 175.73 64.6476C175.873 64.8485 176.017 65.0495 176.155 65.2517C176.701 65.0441 177.246 64.839 177.797 64.629C179.021 65.6496 177.781 65.3363 180.448 65.0083C181.784 64.845 182.846 65.0038 184.218 64.866C184.712 64.8156 185.021 64.4995 185.566 64.4476C186.902 64.3219 186.132 64.7647 186.958 64.7438C187.79 64.7213 188.974 64.2276 190.468 64.4024C188.93 65.2693 193.425 64.8983 193.624 64.2472C194.159 64.2343 194.608 64.2515 195.197 64.2204C194.683 65.8657 197.471 64.6457 198.576 64.3985C199.681 64.1514 199.645 64.5913 199.904 64.5687C200.651 64.5052 200.102 64.3344 200.629 64.3172C204.118 64.2068 207.394 64.4073 210.833 64.3623C211.329 64.3558 210.884 64.1166 211.462 64.1293C212.04 64.1421 212.598 64.3779 213.444 64.3439C213.671 64.335 213.738 64.1157 214.091 64.1085C221.582 63.969 228.647 64.0201 236.283 63.9084C236.977 63.8982 237.519 63.5008 238.822 63.4905C240.21 63.4788 242.135 63.794 243.858 63.7904C244.299 63.7899 244.413 63.4651 244.987 63.4635C246.305 63.4606 247.646 63.569 248.89 63.641C249.419 63.6734 249.962 63.6721 250.533 63.6152C253.681 63.3105 256.695 61.7196 259.154 59.7013C259.619 59.3114 259.743 59.5812 260.412 58.9793C261.53 57.8984 260.829 58.0788 260.986 57.8109C261.45 56.9168 262.059 56.9401 262.442 56.0147C262.497 55.8739 262.123 55.9078 262.184 55.7896C263.061 53.9713 263.811 54.0896 264.018 51.8301C264.847 49.9631 264.283 53.2729 264.293 53.6787C264.498 54.7053 265.928 52.6758 266.336 51.2261C266.373 51.1071 266.403 50.9985 266.426 50.8994C266.632 50.0348 266.368 49.9592 266.433 49.5318C266.81 47.0238 267.311 43.2797 267.757 41.3958C268.025 40.2545 267.849 42.3583 268.047 41.7843C268.244 41.2156 268.052 40.7991 268.415 40.2398C268.778 39.6804 269.763 38.5763 270.11 38.8662ZM72.4708 68.1694C76.4503 67.1528 86.7264 67.9689 92.2505 68.3367C96.8324 68.6622 100.754 69.7869 99.8554 68.2855C94.8874 68.117 90.8835 68.0738 85.6462 67.7278C85.1064 67.6933 81.8594 67.3584 80.7335 67.2589C80.098 67.204 80.0899 66.9595 79.2262 66.9046C79.0389 66.8935 77.9759 67.1407 77.5942 67.1058C76.2827 66.99 72.4357 66.2209 71.8921 66.1925C70.3855 66.1209 70.9337 66.5417 70.279 66.5609C68.0782 66.6199 67.8822 66.0339 65.7076 66.0448C65.3193 66.0466 63.994 66.4369 62.3998 66.2388C61.7536 66.1579 60.6613 65.8089 60.1633 65.7786C57.4492 65.6138 54.3775 65.6813 51.9049 65.3986C49.869 65.1651 50.4498 64.8339 49.3794 64.683C48.3174 64.534 46.9608 64.8515 46.225 64.8071C45.0524 64.7361 43.6318 64.3456 43.2675 64.3138C36.0723 63.6889 29.6203 63.3142 22.6688 62.6638C27.3823 63.3531 32.0594 64.0057 36.7328 64.6596C39.453 64.535 38.0752 64.77 39.8131 65.0672C41.1948 65.3021 41.5976 64.6677 43.4086 64.9184C43.4071 64.9183 43.4056 64.9181 43.4041 64.918C44.3522 65.0493 46.3263 65.7063 48.3612 65.7017C48.4335 65.7009 48.6387 65.3709 50.1397 65.4978C53.5124 65.7847 58.6943 66.0654 62.4836 66.4541C63.5946 66.5685 63.3374 66.9145 64.6526 67.0675C65.6137 67.1785 66.7518 66.9311 68.252 67.1244C70.1326 67.3681 70.997 68.0166 72.3536 67.3071C72.4391 67.6028 72.364 67.8795 72.4708 68.1694ZM177.033 67.0117C177.297 67.0371 180.882 67.8553 179.802 66.9169C175.014 66.6108 169.831 66.9451 164.789 66.8405C166.546 67.7481 169.432 67.2988 172.965 67.1428C172.967 67.1428 172.968 67.1427 172.97 67.1427C173.136 67.1354 172.446 67.4013 173.391 67.3331C173.847 67.2999 175.609 66.8755 177.033 67.0117Z" fill="#FDE480"/>
<path d="M4.67272 22.1387C4.61584 22.5469 4.72426 22.9585 4.97775 23.2835C5.23102 23.6084 5.6086 23.82 6.0238 23.8714C6.43901 23.9228 6.85679 23.8096 7.18163 23.5562C7.50667 23.3028 7.71215 22.93 7.75648 22.5203C7.75648 22.5203 7.75648 22.5203 7.75648 22.5203C7.84964 21.6441 8.87668 20.1096 9.89839 18.969C14.8877 13.4839 23.2138 9.31832 30.1587 12.5593C35.2126 14.7751 39.3086 18.2886 44.0296 21.5637C48.9019 24.8667 54.9363 25.4098 60.4986 25.325C73.6845 26.4624 78.7961 9.47742 91.431 11.8371C93.1085 12.1306 94.7287 12.6713 96.326 13.3565C94.7497 12.6241 93.1434 12.032 91.4599 11.6845C78.6048 9.01555 72.8165 25.7956 60.4986 24.1197C54.9905 24.0365 49.362 23.319 44.9763 20.1384C40.6518 16.9474 36.2948 13.0104 31.126 10.5644C22.8073 6.51488 13.5194 11.0282 7.7175 16.9796C6.49487 18.3855 5.2025 19.6298 4.67272 22.1387Z" fill="#8FDD7C"/>
<path d="M32.6281 11.586C31.2403 12.452 28.4991 13.0807 26.8615 10.4561C25.2239 7.83146 26.9418 5.56288 28.3296 4.69695C29.7175 3.83101 37.4785 2.40756 38.0676 3.5443C38.6568 4.68104 34.0159 10.7201 32.6281 11.586Z" fill="#8FDD7C"/>
<path d="M43.534 25.3023C42.3381 24.1861 41.021 21.7013 43.1319 19.4399C45.2429 17.1784 47.879 18.2502 49.0748 19.3664C50.2706 20.4826 53.6554 27.6102 52.7101 28.4736C51.7647 29.3371 44.7298 26.4186 43.534 25.3023Z" fill="#8FDD7C"/>
<path d="M71.6533 22.1538C71.2279 23.0095 70.0564 24.1614 68.4381 23.3568C66.8199 22.5521 66.9803 20.8975 67.4058 20.0418C67.8312 19.1861 71.2572 16.1021 71.8983 16.4874C72.5394 16.8726 72.0788 21.2981 71.6533 22.1538Z" fill="#8FDD7C"/>
<path d="M8.73694 19.3214C8.45602 20.9329 7.09547 23.3942 4.04784 22.8629C1.00021 22.3316 0.456552 19.5384 0.737474 17.9269C1.0184 16.3154 5.13614 9.58458 6.37597 9.90414C7.6158 10.2237 9.01786 17.7098 8.73694 19.3214Z" fill="#8FDD7C"/>
<path d="M9.21564 25.6623C7.59994 25.9181 4.83079 25.4274 4.34706 22.3718C3.86333 19.3163 6.33024 17.8978 7.94594 17.6421C9.56164 17.3863 17.2629 19.1039 17.3618 20.3804C17.4607 21.6569 10.8313 25.4065 9.21564 25.6623Z" fill="#8FDD7C"/>
<path d="M261.294 66.4732C261.388 66.8744 261.317 67.2942 261.095 67.641C260.872 67.9877 260.515 68.233 260.107 68.3222C259.698 68.4113 259.272 68.3367 258.925 68.1141C258.578 67.8915 258.339 67.5391 258.258 67.1352C258.258 67.1352 258.258 67.1352 258.258 67.1352C258.085 66.2712 256.922 64.837 255.8 63.7946C250.33 58.7888 241.658 55.4021 235.038 59.2645C230.208 61.9333 226.451 65.8066 222.049 69.4997C217.499 73.2344 211.54 74.3271 205.993 74.7513C192.966 77.0898 186.323 60.6434 173.957 64.1487C172.313 64.5943 170.749 65.2809 169.221 66.1094C170.724 65.2359 172.269 64.4993 173.914 63.9993C186.471 60.166 193.77 76.3464 205.883 73.5511C211.36 72.9645 216.9 71.7353 220.976 68.1669C224.991 64.5939 228.969 60.2749 233.893 57.3665C241.806 52.5732 251.468 56.2182 257.79 61.6141C259.136 62.9023 260.537 64.0232 261.294 66.4732Z" fill="#8FDD7C"/>
<path d="M232.49 58.5212C233.951 59.2566 236.739 59.632 238.129 56.8686C239.52 54.1053 237.602 52.0033 236.141 51.2679C234.679 50.5325 226.821 49.8248 226.338 51.0106C225.855 52.1965 231.029 57.7858 232.49 58.5212Z" fill="#8FDD7C"/>
<path d="M222.885 73.1776C223.974 71.9567 225.058 69.3619 222.749 67.3029C220.44 65.244 217.913 66.5523 216.824 67.7732C215.736 68.9941 213.017 76.4013 214.037 77.1747C215.058 77.9481 221.796 74.3985 222.885 73.1776Z" fill="#8FDD7C"/>
<path d="M194.595 72.6135C195.097 73.4266 196.369 74.4666 197.907 73.5173C199.445 72.5681 199.134 70.935 198.632 70.1218C198.13 69.3086 194.436 66.5509 193.833 66.9932C193.23 67.4354 194.093 71.8003 194.595 72.6135Z" fill="#8FDD7C"/>
<path d="M256.989 64.0393C257.416 65.6184 258.996 67.9449 261.982 67.1372C264.969 66.3295 265.255 63.4982 264.827 61.9191C264.4 60.3401 259.684 54.014 258.479 54.4456C257.274 54.8772 256.562 62.4602 256.989 64.0393Z" fill="#8FDD7C"/>
<path d="M257.092 70.3975C258.724 70.5044 261.437 69.7626 261.639 66.6756C261.841 63.5886 259.255 62.4017 257.623 62.2948C255.99 62.1878 248.479 64.6025 248.497 65.8827C248.515 67.1629 255.459 70.2905 257.092 70.3975Z" fill="#8FDD7C"/>
</svg>
